<svg width="35" height="30" viewBox="0 0 35 30" fill="none" xmlns="http://www.w3.org/2000/svg">
<path fill-rule="evenodd" clip-rule="evenodd" d="M6.25506 1.5625H11.5513C11.7667 1.5625 11.977 1.62065 12.1541 1.72919C12.3312 1.83774 12.4667 1.99151 12.5425 2.17L14.5983 7.0075C14.6661 7.16748 14.6832 7.3408 14.6478 7.50875L13.617 12.3987C14.8836 15.0337 16.9747 16.805 20.441 18.3937L25.8983 17.4563C26.0922 17.4232 26.2927 17.4388 26.4772 17.5013L31.9584 19.3512C32.1588 19.4188 32.3312 19.5387 32.453 19.6949C32.5748 19.8511 32.6401 20.0364 32.6404 20.2262V24.7062C32.6404 26.7387 30.6184 28.3875 28.252 27.9312C23.9413 27.1012 15.9538 24.99 10.3596 20.0375C4.99983 15.2938 3.20382 8.74125 2.60091 5.2C2.25498 3.1775 4.08629 1.5625 6.25506 1.5625Z" fill="white"/>
</svg>
