<svg width="34" height="30" viewBox="0 0 34 30" fill="none" xmlns="http://www.w3.org/2000/svg">
<path d="M5.64784 25C4.87126 25 4.2067 24.7554 3.65415 24.2663C3.10161 23.7771 2.82486 23.1883 2.82392 22.5V7.5C2.82392 6.8125 3.10067 6.22417 3.65415 5.735C4.20764 5.24583 4.8722 5.00083 5.64784 5H28.2392C29.0158 5 29.6808 5.245 30.2343 5.735C30.7878 6.225 31.0641 6.81333 31.0631 7.5V22.5C31.0631 23.1875 30.7868 23.7763 30.2343 24.2663C29.6818 24.7563 29.0167 25.0008 28.2392 25H5.64784ZM16.9435 16.25L28.2392 10V7.5L16.9435 13.75L5.64784 7.5V10L16.9435 16.25Z" fill="white"/>
</svg>
